<svg xmlns="http://www.w3.org/2000/svg" viewBox="0 0 800 450" font-family="Arial,Helvetica,sans-serif">
  <rect width="800" height="450" fill="#ffffff"/>
  <rect width="800" height="42" fill="#f5f5f2"/>
  <circle cx="22" cy="21" r="5" fill="#d6d6d2"/><circle cx="40" cy="21" r="5" fill="#d6d6d2"/><circle cx="58" cy="21" r="5" fill="#d6d6d2"/>
  <text x="84" y="26" font-size="12" font-weight="bold" fill="#21201e">Bank Import — BCA mutasi, June</text>
  <rect x="24" y="60" width="560" height="34" rx="6" fill="#eaf5ef" stroke="#d2ecdd"/>
  <text x="40" y="82" font-size="12" font-weight="bold" fill="#17603c">✦ 34 lines read from e-statement PDF · 31 matched · 2 duplicates · 1 needs review</text>
  <g font-size="10" fill="#6b6e72" letter-spacing="1">
    <text x="40" y="126">DATE</text><text x="130" y="126">DESCRIPTION</text><text x="420" y="126">AMOUNT</text><text x="540" y="126">ACCOUNT</text><text x="700" y="126">STATUS</text>
  </g>
  <line x1="24" y1="136" x2="776" y2="136" stroke="#e4e4e0"/>
  <g font-size="12" fill="#21201e">
    <text x="40" y="162">03/06</text><text x="130" y="162">TRSF E-BANKING CR — INV/2026/218</text><text x="420" y="162" font-weight="bold">+ 42.500.000</text><text x="540" y="162">4100 · Sales</text>
    <rect x="688" y="148" width="70" height="20" rx="10" fill="#eaf5ef"/><text x="700" y="162" fill="#17603c" font-size="10" font-weight="bold">BOOKED</text>
    <line x1="24" y1="176" x2="776" y2="176" stroke="#f0f0ec"/>
    <text x="40" y="202">05/06</text><text x="130" y="202">BI-FAST DB — PT SUPPLIER MAKMUR</text><text x="420" y="202" font-weight="bold">− 18.750.000</text><text x="540" y="202">5100 · COGS</text>
    <rect x="688" y="188" width="70" height="20" rx="10" fill="#eaf5ef"/><text x="700" y="202" fill="#17603c" font-size="10" font-weight="bold">BOOKED</text>
    <line x1="24" y1="216" x2="776" y2="216" stroke="#f0f0ec"/>
    <text x="40" y="242">09/06</text><text x="130" y="242">TRSF E-BANKING DB — SEWA GUDANG JUL</text><text x="420" y="242" font-weight="bold">− 9.000.000</text><text x="540" y="242">6210 · Rent</text>
    <rect x="688" y="228" width="70" height="20" rx="10" fill="#eaf5ef"/><text x="700" y="242" fill="#17603c" font-size="10" font-weight="bold">BOOKED</text>
    <line x1="24" y1="256" x2="776" y2="256" stroke="#f0f0ec"/>
    <text x="40" y="282">12/06</text><text x="130" y="282">KR OTOMATIS — QRIS SETTLEMENT</text><text x="420" y="282" font-weight="bold">+ 6.380.000</text><text x="540" y="282">4100 · Sales</text>
    <rect x="688" y="268" width="70" height="20" rx="10" fill="#eaf5ef"/><text x="700" y="282" fill="#17603c" font-size="10" font-weight="bold">BOOKED</text>
    <line x1="24" y1="296" x2="776" y2="296" stroke="#f0f0ec"/>
  </g>
  <rect x="24" y="308" width="752" height="40" rx="6" fill="#fdf3e7" stroke="#f3ddc0"/>
  <text x="40" y="333" font-size="12" fill="#21201e">14/06 — TRSF E-BANKING DB 12.000.000 · <tspan font-weight="bold">unusual amount for “Ops petty cash”</tspan></text>
  <rect x="648" y="316" width="110" height="24" rx="12" fill="#b26a00"/><text x="662" y="332" font-size="11" fill="#ffffff" font-weight="bold">REVIEW &amp; BOOK</text>
  <rect x="24" y="372" width="180" height="40" rx="4" fill="#21201e"/><text x="52" y="397" font-size="13" fill="#ffffff" font-weight="bold">Approve all matched</text>
  <rect x="220" y="372" width="150" height="40" rx="4" fill="#ffffff" stroke="#21201e"/><text x="244" y="397" font-size="13" fill="#21201e" font-weight="bold">Export to Excel</text>
  <text x="400" y="397" font-size="12" fill="#6b6e72">Nothing posts without your approval.</text>
</svg>
