<svg xmlns="http://www.w3.org/2000/svg" viewBox="0 0 800 450" font-family="Arial,Helvetica,sans-serif">
  <rect width="800" height="450" fill="#ffffff"/>
  <rect width="800" height="42" fill="#f5f5f2"/>
  <circle cx="22" cy="21" r="5" fill="#d6d6d2"/><circle cx="40" cy="21" r="5" fill="#d6d6d2"/><circle cx="58" cy="21" r="5" fill="#d6d6d2"/>
  <text x="84" y="26" font-size="12" font-weight="bold" fill="#21201e">Reports — Income statement, Jan–Jun 2026</text>
  <rect x="24" y="60" width="500" height="356" rx="6" fill="#ffffff" stroke="#e4e4e0"/>
  <text x="44" y="92" font-size="14" font-weight="bold" fill="#21201e">Consolidated Income Statement</text>
  <text x="44" y="110" font-size="11" fill="#6b6e72">Group · IDR · intercompany eliminated</text>
  <g font-size="12.5" fill="#21201e">
    <text x="44" y="146">Revenue</text><text x="470" y="146" text-anchor="end" font-weight="bold">27.818.400.000</text>
    <line x1="44" y1="156" x2="504" y2="156" stroke="#f0f0ec"/>
    <text x="44" y="180">Cost of sales</text><text x="470" y="180" text-anchor="end">(12.487.200.000)</text>
    <line x1="44" y1="190" x2="504" y2="190" stroke="#f0f0ec"/>
    <text x="44" y="214" font-weight="bold">Gross profit</text><text x="470" y="214" text-anchor="end" font-weight="bold" fill="#17603c">15.331.200.000</text>
    <line x1="44" y1="224" x2="504" y2="224" stroke="#e4e4e0"/>
    <text x="44" y="248">Operating expense</text><text x="470" y="248" text-anchor="end">(9.816.900.000)</text>
    <line x1="44" y1="258" x2="504" y2="258" stroke="#f0f0ec"/>
    <text x="44" y="282" font-weight="bold">Operating profit</text><text x="470" y="282" text-anchor="end" font-weight="bold" fill="#17603c">5.514.300.000</text>
    <line x1="44" y1="292" x2="504" y2="292" stroke="#e4e4e0"/>
    <text x="44" y="316">Margin</text><text x="470" y="316" text-anchor="end" font-weight="bold">19,8%</text>
  </g>
  <rect x="44" y="344" width="130" height="36" rx="4" fill="#21201e"/><text x="66" y="367" font-size="12" fill="#ffffff" font-weight="bold">Export Excel</text>
  <rect x="188" y="344" width="118" height="36" rx="4" fill="#ffffff" stroke="#21201e"/><text x="210" y="367" font-size="12" fill="#21201e" font-weight="bold">Export PDF</text>
  <rect x="548" y="60" width="228" height="170" rx="6" fill="#f5f5f2"/>
  <text x="564" y="88" font-size="11" font-weight="bold" fill="#3c3b38">Budget vs realization</text>
  <g font-size="11" fill="#21201e">
    <text x="564" y="116">Marketing</text><rect x="564" y="124" width="190" height="9" rx="4" fill="#e4e4e0"/><rect x="564" y="124" width="122" height="9" rx="4" fill="#27925a"/>
    <text x="564" y="152">Operations</text><rect x="564" y="160" width="190" height="9" rx="4" fill="#e4e4e0"/><rect x="564" y="160" width="160" height="9" rx="4" fill="#b26a00"/>
    <text x="564" y="188">Payroll</text><rect x="564" y="196" width="190" height="9" rx="4" fill="#e4e4e0"/><rect x="564" y="196" width="98" height="9" rx="4" fill="#27925a"/>
  </g>
  <rect x="548" y="252" width="228" height="164" rx="6" fill="#0e0f0c"/>
  <text x="564" y="282" font-size="11" font-weight="bold" fill="#ffffff" letter-spacing="1">SENT TO THE BOARD</text>
  <g font-size="11.5" fill="#cfcfca">
    <text x="564" y="312">✓ P&amp;L — group + per entity</text>
    <text x="564" y="338">✓ Balance sheet</text>
    <text x="564" y="364">✓ Cash flow statement</text>
    <text x="564" y="390">✓ Budget realization pack</text>
  </g>
</svg>
